<svg xmlns="http://www.w3.org/2000/svg" xmlns:xlink="http://www.w3.org/1999/xlink" width="510.158" height="359.768" viewBox="0 0 510.158 359.768">
  <defs>
    <clipPath id="clip-path">
      <rect width="510.158" height="359.768" fill="none"/>
    </clipPath>
    <linearGradient id="linear-gradient" x1="0.483" y1="-0.572" x2="0.59" y2="5.604" gradientUnits="objectBoundingBox">
      <stop offset="0" stop-color="#010101" stop-opacity="0"/>
      <stop offset="0.95" stop-color="#010101"/>
    </linearGradient>
    <linearGradient id="linear-gradient-2" x1="0.492" y1="-0.774" x2="0.529" y2="5.225" xlink:href="#linear-gradient"/>
    <linearGradient id="linear-gradient-3" x1="-1.149" y1="0.597" x2="8.988" y2="0.001" gradientUnits="objectBoundingBox">
      <stop offset="0" stop-color="#010101" stop-opacity="0"/>
      <stop offset="0.35" stop-color="#010101" stop-opacity="0.349"/>
      <stop offset="0.95" stop-color="#010101"/>
    </linearGradient>
    <linearGradient id="linear-gradient-5" x1="-0.681" y1="0.543" x2="7.488" y2="0.246" xlink:href="#linear-gradient"/>
    <linearGradient id="linear-gradient-6" x1="-0.035" y1="0.53" x2="1.036" y2="0.491" xlink:href="#linear-gradient"/>
    <linearGradient id="linear-gradient-7" x1="-0.301" y1="0.633" x2="4.556" y2="-0.172" xlink:href="#linear-gradient"/>
    <linearGradient id="linear-gradient-8" x1="-0.298" y1="0.635" x2="4.538" y2="-0.181" xlink:href="#linear-gradient"/>
    <linearGradient id="linear-gradient-9" x1="0.167" y1="-0.182" x2="3.213" y2="4.21" xlink:href="#linear-gradient"/>
    <linearGradient id="linear-gradient-10" y1="0.501" x2="0.999" y2="0.501" gradientUnits="objectBoundingBox">
      <stop offset="0" stop-color="#e5c6d6"/>
      <stop offset="0.42" stop-color="#ead4d0"/>
      <stop offset="1" stop-color="#f0e9cb"/>
    </linearGradient>
    <linearGradient id="linear-gradient-11" x1="-0.601" y1="1.621" x2="7.01" y2="-6.012" xlink:href="#linear-gradient"/>
    <linearGradient id="linear-gradient-12" x1="-52.916" y1="0.5" x2="-51.915" y2="0.5" xlink:href="#linear-gradient-10"/>
    <linearGradient id="linear-gradient-13" x1="0.215" y1="-0.427" x2="0.789" y2="1.369" xlink:href="#linear-gradient"/>
    <linearGradient id="linear-gradient-14" x1="0.339" y1="0.174" x2="1.47" y2="2.641" xlink:href="#linear-gradient"/>
    <linearGradient id="linear-gradient-15" x1="0.162" y1="-0.049" x2="1.445" y2="2.335" xlink:href="#linear-gradient"/>
    <linearGradient id="linear-gradient-16" x1="0.882" y1="0.308" x2="-1.487" y2="1.531" xlink:href="#linear-gradient"/>
    <linearGradient id="linear-gradient-17" x1="-113.324" y1="0.503" x2="-112.324" y2="0.503" xlink:href="#linear-gradient-10"/>
    <linearGradient id="linear-gradient-18" x1="0.485" y1="0.878" x2="0.922" y2="-0.629" xlink:href="#linear-gradient"/>
    <linearGradient id="linear-gradient-19" x1="-0.127" y1="1.176" x2="3.599" y2="-2.84" xlink:href="#linear-gradient"/>
    <linearGradient id="linear-gradient-20" x1="-0.12" y1="1.361" x2="3.564" y2="-3.759" xlink:href="#linear-gradient"/>
    <linearGradient id="linear-gradient-21" x1="0.465" y1="-0.065" x2="0.541" y2="1.151" gradientUnits="objectBoundingBox">
      <stop offset="0" stop-color="#010101" stop-opacity="0"/>
      <stop offset="1" stop-color="#010101"/>
    </linearGradient>
    <linearGradient id="linear-gradient-22" x1="-0.239" y1="0.749" x2="4.403" y2="-0.184" xlink:href="#linear-gradient"/>
    <linearGradient id="linear-gradient-23" x1="-0.21" y1="0.794" x2="4.258" y2="-0.291" xlink:href="#linear-gradient"/>
    <linearGradient id="linear-gradient-24" x1="0.718" y1="0.523" x2="-0.407" y2="0.822" xlink:href="#linear-gradient"/>
  </defs>
  <g id="construction" clip-path="url(#clip-path)">
    <g id="construction-2" data-name="construction" transform="translate(0.007 0.004)">
      <path id="Pfad_1" data-name="Pfad 1" d="M451.19,387.71c-39.79,20.46-85.8,19.5-129.87,18.15l-153-4.79c-14.9-.45-29.92-.93-44.7-2.89A175,175,0,0,1,98.06,393c-3.22-.93-6.38-1.95-9.54-3.13-1.63-.6-3.22-1.23-4.82-1.92a128.908,128.908,0,0,1-25.37-14.3,142.44,142.44,0,0,1-47.4-59.5C2.05,293.26-2,268.7,5.72,247.27,20,207.6,65,195.26,100.26,175.91c33.23-18.24,61.1-47,80-81.56,21.82-39.88,23.92-50.12,71.36-47.17,44.84,2.77,92.49,6.6,128.69,35.19C401,98.65,416,121.68,430.67,144.25q28.62,44.06,57.24,88.15c8.25,12.7,16.62,25.68,20.86,40.45C521.77,318.18,491,367.24,451.19,387.71Z" transform="translate(-1.64 -46.71)" fill="#8cb4a7" opacity="0.24" style="isolation: isolate"/>
      <ellipse id="Ellipse_1" data-name="Ellipse 1" cx="156.49" cy="13.56" rx="156.49" ry="13.56" transform="translate(135.02 322.31)" fill="#a0c1b6" opacity="0.24" style="isolation: isolate"/>
      <path id="Pfad_2" data-name="Pfad 2" d="M81.24,65.4l20.17-8.33,110.91,10.4V78.02l-131.08.39Z" fill="#40826d"/>
      <path id="Pfad_36" data-name="Pfad 36" d="M0,0H19.85V275.75H0Z" transform="translate(98.05 53.8)" fill="#40826d"/>
      <path id="Pfad_3" data-name="Pfad 3" d="M439.55,234.86s12.84,6.63,13.05,11.6,3.31,26.5,3.31,26.5l-8.7,3.73,1.19,17.59a4.07,4.07,0,0,1-3.67,4.34c-8.15.8-30.07-2-29.84-4.49,2.8-30-1.34-52,4-55.12s12.59-4.11,12.59-4.11Z" transform="translate(-1.64 -46.71)" fill="#40826d"/>
      <path id="Pfad_4" data-name="Pfad 4" d="M445.57,229.98l-11.98,1.6-1.55-2.02-18.09,2.02.23,1.71,18.01.77,3.89,3.42,9.78-1.09Z" opacity="0.5" fill="url(#linear-gradient)"/>
      <path id="Pfad_5" data-name="Pfad 5" d="M403,158.39V335a8.59,8.59,0,0,1-8.6,8.6H164a7.88,7.88,0,0,1-8-9V158c-.62-4.35,3.22-8.19,8-8.19H394.37a8.59,8.59,0,0,1,8.63,8.58Z" transform="translate(-1.64 -46.71)" fill="#40826d"/>
      <rect id="Rechteck_2" data-name="Rechteck 2" width="104.52" height="9.04" transform="translate(161.86 287.85)" opacity="0.5" fill="url(#linear-gradient-2)"/>
      <rect id="Rechteck_3" data-name="Rechteck 3" width="9.89" height="69.56" transform="translate(243.21 287.01)" fill="#fff"/>
      <rect id="Rechteck_4" data-name="Rechteck 4" width="9.89" height="67.23" transform="translate(172.59 287.01)" fill="#fff"/>
      <path id="Pfad_6" data-name="Pfad 6" d="M172.66,323.73h9.96V289.62H172.45Z" opacity="0.5" fill="url(#linear-gradient-3)"/>
      <path id="Pfad_7" data-name="Pfad 7" d="M243.42,323.73h9.96V289.62H243.21Z" opacity="0.5" fill="url(#linear-gradient-3)"/>
      <rect id="Rechteck_5" data-name="Rechteck 5" width="86.96" height="124.22" transform="translate(301.14 129.77)" opacity="0.5" fill="url(#linear-gradient-5)"/>
      <path id="Pfad_8" data-name="Pfad 8" d="M291.21,129.77V254.01H204.25v-8.73h49.07V129.77Z" opacity="0.5" fill="url(#linear-gradient-6)"/>
      <rect id="Rechteck_6" data-name="Rechteck 6" width="86.96" height="124.2" transform="translate(166.36 121.08)" opacity="0.5" fill="url(#linear-gradient-7)"/>
      <rect id="Rechteck_7" data-name="Rechteck 7" width="86.96" height="122.03" transform="translate(168.85 121.18)" opacity="0.5" fill="url(#linear-gradient-8)"/>
      <path id="Pfad_9" data-name="Pfad 9" d="M353.57,223.45s-1.57-.13-1.1.88,3.73,1.49,3.65,2c-1.4,8.77,6.21,10,9.47,9.16s37.19,18.82,37.19,18.82l.31-17.81Z" transform="translate(-1.64 -46.71)" fill="url(#linear-gradient-9)"/>
      <path id="Pfad_10" data-name="Pfad 10" d="M363.86,224.23c-3.28-.74-6.57-1.49-9.9-1.91a.77.77,0,0,0-.45,0c-.38.19-.22.78.06,1.1,1,1.07,2.53,1.29,3.86,1.84a.46.46,0,0,1,.27.22.49.49,0,0,1,0,.29,6.469,6.469,0,0,0-.27,3.26,4.11,4.11,0,0,0,1.77,2.69,6.3,6.3,0,0,0,2.81.72,7.64,7.64,0,0,0,3.43-.31,12.77,12.77,0,0,1,2-.86c.44-.09.95-.09,1.22-.44a1.21,1.21,0,0,0,.21-.62c.18-1.3.28-3.24-.74-4.22a8.9,8.9,0,0,0-4.27-1.76Z" transform="translate(-1.64 -46.71)" fill="url(#linear-gradient-10)"/>
      <path id="Pfad_11" data-name="Pfad 11" d="M403,158.39v4.24H155.37v-4.24a8.59,8.59,0,0,1,8.61-8.6H394.37a8.59,8.59,0,0,1,8.63,8.6Z" transform="translate(-1.64 -46.71)" fill="url(#linear-gradient-11)"/>
      <path id="Pfad_12" data-name="Pfad 12" d="M421.21,219.76a3.829,3.829,0,0,0-.38,1.14,5.77,5.77,0,0,0,.87,2.75c.95,2.23.81,5.16,2.79,6.55,1.1.77,2.55.79,3.8,1.27a5.52,5.52,0,0,1,3.23,3.43c.44,1.4-1.46,6.61-.09,7.13s3.59-1,4.89-1.94c1.55-1.08,2.95-2,3.1-3.53.53-5.42,1.05-10.91.23-16.3a13.77,13.77,0,0,0-1.41-4.66,9,9,0,0,0-6.83-4.52C425.29,210.45,423.29,215.09,421.21,219.76Z" transform="translate(-1.64 -46.71)" fill="url(#linear-gradient-12)"/>
      <path id="Pfad_13" data-name="Pfad 13" d="M421.73,210.92a3.76,3.76,0,0,0,.9,3.55c1.69,1.77,4.77,1.59,6.39,3.42a7.26,7.26,0,0,1,1.22,2.4c.2.55.57,1.2,1.15,1.12.79-.11.73-1.38,1.39-1.84a1.27,1.27,0,0,1,1.68.58c.74,1.26-.07,2.92-1.25,3.79-.09.06-.19.14-.18.25s.06.13.11.19l3.48,3.74a3.28,3.28,0,0,0,1.5,1.09c1.11.26,2.11-.66,2.88-1.5l3.43-3.77a9.259,9.259,0,0,0,1.53-2.06,8.861,8.861,0,0,0,.41-4.55,13.442,13.442,0,0,0-1-4.68,9.77,9.77,0,0,0-3.83-3.9c-4.69-2.85-10.45-3.29-15.93-3-1.39.08-.8,1.48-1.46,2.34C423.37,209.18,422.14,209.45,421.73,210.92Z" transform="translate(-1.64 -46.71)" fill="#606161"/>
      <path id="Pfad_14" data-name="Pfad 14" d="M421.57,211.68a9.523,9.523,0,0,0,.31,1.47c.12.2,23.1,8.43,23.1,8.43s1,.27,1.08-.28a12.545,12.545,0,0,1,.35-1.43Z" transform="translate(-1.64 -46.71)" fill="url(#linear-gradient-13)"/>
      <path id="Pfad_15" data-name="Pfad 15" d="M450,215.48a15.489,15.489,0,0,1-.39,4s-1.33,1-5,.05-27-9.22-27-9.22-.35-1.42,1-1.55h0a5.62,5.62,0,0,0,2.87-1.54s4.89-10.81,18.17-5.78C448.28,204.67,449.92,211.25,450,215.48Z" transform="translate(-1.64 -46.71)" fill="#fca311"/>
      <path id="Pfad_16" data-name="Pfad 16" d="M450,215.48a14,14,0,0,1-.35,2.08,4.45,4.45,0,0,1-2.91.44,10.918,10.918,0,0,1-2-.36c-2.21-.57-11.52-3.79-18.62-6.26-3.26-1.15-6-2.16-7.41-2.65a5.62,5.62,0,0,0,2.87-1.54s4.89-10.81,18.17-5.78C448.28,204.67,449.92,211.25,450,215.48Z" transform="translate(-1.64 -46.71)" opacity="0.5" fill="url(#linear-gradient-14)"/>
      <path id="Pfad_17" data-name="Pfad 17" d="M446.74,218a10.916,10.916,0,0,1-2-.36c-2.21-.57-11.52-3.79-18.62-6.26a.669.669,0,0,0,.13-.18s3.58-10.81,13.15-5.78C444.89,208.33,446.47,213.85,446.74,218Z" transform="translate(-1.64 -46.71)" opacity="0.5" fill="url(#linear-gradient-15)"/>
      <path id="Pfad_18" data-name="Pfad 18" d="M421.09,205.96l-18.71,1.55,11.57,24.07,18.24-.57Z" fill="#fff"/>
      <path id="Pfad_19" data-name="Pfad 19" d="M420.6,206.68l-18.22.83,11.57,24.07,18.24-.57Z" opacity="0.5" fill="url(#linear-gradient-16)"/>
      <path id="Pfad_20" data-name="Pfad 20" d="M427.46,268.31c-.41.06-.91.21-1,.62s.5.77,1,.9l1.81.5a4.7,4.7,0,0,0-2.59-.29.657.657,0,0,0-.65.43c-.06.27.43.65.84.72l2.38.43a3.5,3.5,0,0,0-2.36.29.58.58,0,0,0-.26.23c-.13.29.26.53.57.61a18.3,18.3,0,0,0,2.64.49h-1.67a.84.84,0,0,0-.58.15.6.6,0,0,0,.14.89,1.78,1.78,0,0,0,1,.22h1.4a2.47,2.47,0,0,1,.82.12c.78.33,1,1.4,1.76,1.79a1.58,1.58,0,0,0,1.92-.65,3.09,3.09,0,0,0,.31-2.16,5.83,5.83,0,0,0-2.81-3.95C430.48,268.63,429.51,268,427.46,268.31Z" transform="translate(-1.64 -46.71)" fill="url(#linear-gradient-17)"/>
      <path id="Pfad_21" data-name="Pfad 21" d="M446.09,250.06l-5.9,40.99,7.14,47.52-4.66.62L428.7,294.47l-1.87-21.12-16.14,63.66h-4.04l7.74-89.02Z" fill="#40826d"/>
      <path id="Pfad_22" data-name="Pfad 22" d="M446.09,250.06l-5.9,40.99,7.14,47.52-4.66.62L428.7,294.47l-1.87-21.12-16.14,63.66h-4.04l3.98-45.73,3.76-43.29Z" transform="translate(0)" fill="url(#linear-gradient-18)"/>
      <path id="Pfad_23" data-name="Pfad 23" d="M450.14,389.74c0,.12.06.26,0,.35a.42.42,0,0,1-.29.11,52.685,52.685,0,0,1-10.43,0,6.629,6.629,0,0,1,1.59-2.88,5.1,5.1,0,0,1,1.42-.85c1.38-.61,4.36-1.8,5.88-1.24C449.56,385.74,449.86,388.54,450.14,389.74Z" transform="translate(-1.64 -46.71)" fill="#606161"/>
      <path id="Pfad_24" data-name="Pfad 24" d="M412.29,389.05a.43.43,0,0,1-.12.31.48.48,0,0,1-.31.1,67.232,67.232,0,0,1-9.73,0,.51.51,0,0,1-.3-.09c-.16-.15-.07-.41,0-.59a10.689,10.689,0,0,1,4.37-4.32c1.16-.59,4.2-1.67,5.43-.76S412.43,387.69,412.29,389.05Z" transform="translate(-1.64 -46.71)" fill="#606161"/>
      <path id="Pfad_25" data-name="Pfad 25" d="M391.75,229.53l38.2,5.59L416.44,251h0a13.4,13.4,0,0,0-8.31-6.74L367.79,233l.31-7.45Z" transform="translate(-1.64 -46.71)" fill="#40826d"/>
      <path id="Pfad_26" data-name="Pfad 26" d="M132,78.14" transform="translate(-1.64 -46.71)" fill="#fff"/>
      <rect id="Rechteck_8" data-name="Rechteck 8" width="1.45" height="35.77" transform="translate(207.32 77.87)" fill="#fff"/>
      <path id="Pfad_27" data-name="Pfad 27" d="M168,167.79s35.73-17.8,87,0" transform="translate(-1.64 -46.71)" fill="none" stroke="#fff" stroke-linecap="round" stroke-miterlimit="10" stroke-width="1.1"/>
      <path id="Pfad_28" data-name="Pfad 28" d="M212.32,67.47V78.02H117.91V57.28Z" transform="translate(0.17 0.855)" fill="url(#linear-gradient-19)"/>
      <path id="Pfad_29" data-name="Pfad 29" d="M212.32,72.13v5.89H117.91V61.94Z" transform="translate(0 0.855)" fill="url(#linear-gradient-20)"/>
      <rect id="Rechteck_10" data-name="Rechteck 10" width="10.97" height="275.75" transform="translate(101.93 54.292)" fill="url(#linear-gradient-21)"/>
      <path id="Pfad_30" data-name="Pfad 30" d="M98.05,58.6V78.41H81.24V65.4Z" fill="url(#linear-gradient-22)"/>
      <path id="Pfad_31" data-name="Pfad 31" d="M98.05,62.02V78.41H81.24v-9.6Z" fill="url(#linear-gradient-23)"/>
      <rect id="Rechteck_11" data-name="Rechteck 11" width="55.49" height="4.35" rx="2.17" transform="translate(175.26 128.94)" fill="#538f7c"/>
      <rect id="Rechteck_12" data-name="Rechteck 12" width="30.82" height="2.42" rx="1.21" transform="translate(175.26 136.77)" fill="#538f7c"/>
      <rect id="Rechteck_13" data-name="Rechteck 13" width="30.82" height="2.42" rx="1.21" transform="translate(188.1 142.78)" fill="#538f7c"/>
      <rect id="Rechteck_14" data-name="Rechteck 14" width="4.52" height="2.39" rx="1.19" transform="translate(209.01 136.77)" fill="#538f7c"/>
      <rect id="Rechteck_15" data-name="Rechteck 15" width="4.52" height="2.39" rx="1.19" transform="translate(215.53 136.77)" fill="#538f7c"/>
      <rect id="Rechteck_16" data-name="Rechteck 16" width="4.52" height="2.39" rx="1.19" transform="translate(178.57 142.78)" fill="#538f7c"/>
      <rect id="Rechteck_17" data-name="Rechteck 17" width="4.52" height="2.39" rx="1.19" transform="translate(222.05 136.77)" fill="#538f7c"/>
      <rect id="Rechteck_18" data-name="Rechteck 18" width="82.2" height="12.48" transform="translate(164.4 262.52)" fill="#336857"/>
      <path id="Pfad_37" data-name="Pfad 37" d="M0,0H100.42V26.27H0Z" transform="translate(162.28 293.01)" fill="#264e41"/>
      <path id="Pfad_32" data-name="Pfad 32" d="M162.65,338.66V366l101.89-.2-.62-27.13Zm2.61,3.48h15.52l-15.07,20h-.45Zm24.86,0h9.94l-14.91,20h-10Zm19.28,0h9.95l-14.92,20h-9.79Zm19.44,0h9.94l-15.06,20h-9.8Zm19.29,0h9.94l-14.92,20h-9.79Zm12.8,20h-8.28L260.93,351Z" transform="translate(-1.64 -46.71)" fill="#fff"/>
      <path id="Pfad_33" data-name="Pfad 33" d="M119.49,348.88c-1.53,3.13-2.62,7-.78,10a40.854,40.854,0,0,0,3,3.34c4,4.88,1.89,12.22-1.24,17.67a10.73,10.73,0,0,0-1.83,4.61c-.12,2.61,1.77,4.78,3.34,6.86s2.71,4.69,1.65,6.86a159.883,159.883,0,0,1-35.09-8.31c-1.63-.6-3.22-1.23-4.82-1.92-.33-3.64.82-7.44,2.29-10.87,1.63-3.76,4.13-7.67,4.76-11.8.57-3.76-.09-7.28,1.08-11.07A25.06,25.06,0,0,1,107,338c2.11-.73,4.42-1.24,6-2.77a12,12,0,0,0,2.47-4q4.24-9.21,8.42-18.48c1.3-2.83,3-6,6.11-6.5,2.38-.39,4.76,1.18,5.93,3.28a11.74,11.74,0,0,1,1.06,7.05C135.65,328.9,125,337.8,119.49,348.88Z" transform="translate(-1.64 -46.71)" fill="#669b8a"/>
      <path id="Pfad_34" data-name="Pfad 34" d="M119.49,348.88c-1.53,3.13-2.62,7-.78,10a40.854,40.854,0,0,0,3,3.34c4,4.88,1.89,12.22-1.24,17.67a10.73,10.73,0,0,0-1.83,4.61c-.12,2.61,1.77,4.78,3.34,6.86s2.71,4.69,1.65,6.86a159.883,159.883,0,0,1-35.09-8.31c-1.63-.6-3.22-1.23-4.82-1.92-.33-3.64.82-7.44,2.29-10.87,1.63-3.76,4.13-7.67,4.76-11.8.57-3.76-.09-7.28,1.08-11.07A25.06,25.06,0,0,1,107,338c2.11-.73,4.42-1.24,6-2.77a12,12,0,0,0,2.47-4q4.24-9.21,8.42-18.48c1.3-2.83,3-6,6.11-6.5,2.38-.39,4.76,1.18,5.93,3.28a11.74,11.74,0,0,1,1.06,7.05C135.65,328.9,125,337.8,119.49,348.88Z" transform="translate(-1.64 -46.71)" opacity="0.5" fill="url(#linear-gradient-24)"/>
      <path id="Pfad_35" data-name="Pfad 35" d="M103.42,384.79A10.83,10.83,0,0,1,98.06,393c-3.22-.93-6.38-1.95-9.54-3.13-1.63-.6-3.22-1.23-4.82-1.92a128.908,128.908,0,0,1-25.37-14.3,31.7,31.7,0,0,1-1.2-4.69,8.28,8.28,0,0,1,3.64-8.28,30.406,30.406,0,0,0,3.85-2.2c2.68-2.2,2.71-6.38,1.36-9.54s-3.83-5.75-5.63-8.7-3-6.65-1.57-9.78c.94-2,2.83-3.46,4-5.39,2.22-3.61,1.5-8.24.69-12.4-1.08-5.65-2.17-11.28-3.28-16.94-.69-3.67-1.21-8,1.5-10.6,3.68-3.49,9.75-.69,13.4,2.8a33,33,0,0,1,9.3,14.69c3.43,12.31-2.56,26.16,2.25,38,3.22,8,10.78,13.46,14.54,21.19C104.59,368.87,104.53,377.14,103.42,384.79Z" transform="translate(-1.64 -46.71)" fill="#79a899"/>
    </g>
  </g>
</svg>
